<?xml version="1.0" ?><svg id="Layer_1" style="enable-background:new 0 0 200 200;" version="1.1" viewBox="0 0 200 200" xml:space="preserve" xmlns="http://www.w3.org/2000/svg" xmlns:xlink="http://www.w3.org/1999/xlink"><style type="text/css">
	.st0{fill:url(#SVGID_1_);}
	.st1{fill:url(#SVGID_2_);}
</style><g><linearGradient gradientUnits="userSpaceOnUse" id="SVGID_1_" x1="149.6091" x2="17.6054" y1="175.532" y2="43.5282"><stop offset="0" style="stop-color:#007FE2"/><stop offset="1" style="stop-color:#39D3B8"/></linearGradient><path class="st0" d="M155.405,168.352l-30.119-13.328c-1.751-0.775-3.805,0.015-4.58,1.77c-0.776,1.754,0.016,3.805,1.77,4.58   l30.119,13.328c0.457,0.202,0.933,0.298,1.404,0.298c1.332,0,2.603-0.771,3.177-2.068   C157.951,171.179,157.158,169.128,155.405,168.352z"/><linearGradient gradientUnits="userSpaceOnUse" id="SVGID_2_" x1="153.7117" x2="21.7079" y1="171.4295" y2="39.4257"><stop offset="0" style="stop-color:#007FE2"/><stop offset="1" style="stop-color:#39D3B8"/></linearGradient><path class="st1" d="M136.18,128.063c2.52-3.734,4.72-7.846,6.557-12.249c0.746-0.066,1.488-0.193,2.222-0.38   c1.581-0.404,3.068-1.073,4.422-1.991c1.363-0.924,2.542-2.068,3.503-3.4c0.996-1.378,1.727-2.915,2.173-4.56l1.911-6.973   c0.502-1.836,0.631-3.718,0.382-5.594c-0.24-1.807-0.819-3.531-1.724-5.127c-0.905-1.591-2.087-2.97-3.513-4.101   c-0.911-0.722-1.898-1.322-2.947-1.794c-0.056-8.687-1.326-16.694-3.777-23.811c-2.413-7.007-5.946-13.106-10.503-18.125   c-4.424-4.873-9.721-8.638-15.74-11.188C113.241,26.268,106.8,25,100.001,25s-13.241,1.268-19.146,3.77   c-6.023,2.551-11.321,6.316-15.744,11.188c-4.559,5.018-8.094,11.116-10.509,18.124c-2.454,7.121-3.724,15.13-3.779,23.816   c-1.048,0.472-2.03,1.07-2.938,1.789c-1.429,1.131-2.612,2.512-3.516,4.106c-0.901,1.591-1.48,3.315-1.718,5.124   c-0.248,1.875-0.118,3.757,0.383,5.587l1.898,6.974c0.451,1.651,1.184,3.187,2.18,4.565c0.963,1.332,2.142,2.475,3.504,3.399   c1.354,0.918,2.842,1.588,4.422,1.99c0.734,0.188,1.478,0.314,2.227,0.38c1.836,4.403,4.037,8.515,6.557,12.249   c2.636,3.907,5.6,7.37,8.826,10.316v17.56l-28.052,12.413c-1.754,0.776-2.546,2.827-1.77,4.58c0.574,1.297,1.845,2.068,3.177,2.068   c0.469,0,0.946-0.096,1.403-0.298l30.119-13.328c1.257-0.556,2.067-1.801,2.067-3.175v-21.385c0-1.015-0.444-1.979-1.215-2.638   c-3.225-2.759-6.185-6.122-8.8-9.998c-2.645-3.92-4.906-8.321-6.718-13.08c-0.562-1.475-2.045-2.389-3.615-2.216   c-0.839,0.089-1.676,0.029-2.492-0.178c-0.799-0.204-1.553-0.544-2.24-1.009c-0.69-0.468-1.287-1.048-1.774-1.721   c-0.505-0.699-0.878-1.481-1.108-2.323l-1.899-6.975c-0.257-0.939-0.323-1.898-0.197-2.85c0.121-0.92,0.416-1.799,0.875-2.609   c0.46-0.81,1.061-1.512,1.785-2.086c0.747-0.592,1.599-1.022,2.399-1.246c0.008-0.002,0.144-0.034,0.152-0.036l0.085-0.021   c0.005-0.001,0.263-0.062,0.268-0.063c1.57-0.368,2.68-1.768,2.68-3.381l-0.014-1.893c0-8.143,1.145-15.596,3.403-22.148   c2.106-6.112,5.162-11.4,9.084-15.718c3.743-4.123,8.221-7.307,13.312-9.463c5.044-2.136,10.573-3.219,16.437-3.219   c5.863,0,11.393,1.083,16.434,3.219c5.088,2.156,9.565,5.339,13.31,9.462c3.918,4.318,6.973,9.606,9.078,15.719   c2.256,6.55,3.4,14.003,3.4,22.148l-0.014,1.893c0,1.711,1.199,3.16,2.889,3.423l0.176,0.043c0.929,0.257,1.778,0.687,2.525,1.279   c0.724,0.574,1.326,1.277,1.786,2.086c0.461,0.814,0.757,1.693,0.879,2.612c0.126,0.953,0.061,1.912-0.195,2.848l-1.914,6.98   c-0.228,0.843-0.599,1.624-1.101,2.319c-0.487,0.673-1.082,1.252-1.773,1.72c-0.686,0.465-1.44,0.805-2.241,1.009   c-0.814,0.207-1.651,0.267-2.483,0.178c-1.583-0.162-3.054,0.743-3.616,2.216c-1.813,4.758-4.073,9.159-6.718,13.08   c-2.615,3.875-5.576,7.239-8.8,9.998c-3.229,2.762-6.692,4.892-10.295,6.331c-3.672,1.467-7.484,2.21-11.329,2.21   c-1.918,0-3.472,1.554-3.472,3.472c0,1.918,1.554,3.472,3.472,3.472c4.732,0,9.41-0.91,13.904-2.705   c4.309-1.721,8.426-4.246,12.233-7.504C129.837,136.288,133.215,132.457,136.18,128.063z"/></g></svg>