<?xml version="1.0" encoding="utf-8"?>
<!-- Generator: Adobe Illustrator 25.2.1, SVG Export Plug-In . SVG Version: 6.00 Build 0)  -->
<svg version="1.1" id="Layer_1"
	xmlns="http://www.w3.org/2000/svg"
	xmlns:xlink="http://www.w3.org/1999/xlink" x="0px" y="0px" viewBox="0 0 2355.1 243.3" style="enable-background:new 0 0 2355.1 243.3;" xml:space="preserve">
	<style type="text/css">
	.st0{fill:#FFFFFF;}
	.clickbox{fill-opacity:0;}
	</style>
	<g id="Layer_2_1_">
		<g id="Text_outlines">
			<path class="st0" d="M266.8,67.2V176h-18.6v-49.2h-48.6V176h-19.1V67.2H199v43.2h48.7V67.2H266.8z M161.3,176h-18.6V67.2h18.6V176
			z M124.1,176h-19.7L55.8,96.2h-0.5V176h-18V67.2h19.6l49.2,79.8h0.6V67.2h18V176H124.1z M332.9,121.3L266.8,0H21.9
			C9.7,0.1-0.1,10,0,22.2c0,0.1,0,0.1,0,0.2v198.4c-0.2,12.2,9.5,22.2,21.7,22.4c0.1,0,0.1,0,0.2,0h244.4L332.9,121.3z"/>
			<path class="st0" d="M283.2,242.7l66.7-121.4L283.2,0h16.4c9.3,0,20.2,6.6,24.6,14.8l58.5,106.6L324.2,228
			c-4.4,8.2-15.3,14.8-24.6,14.8L283.2,242.7z"/>
			<path class="st0" d="M428.1,30.9h16.5l40.8,65.8h0.2V30.9h14.9v89.2H484l-40.6-65.6H443v65.6h-14.9V30.9z"/>
			<path class="st0" d="M571.2,105.8c-0.1,1.3,0.1,2.6,0.7,3.8c0.6,0.8,1.7,1.3,2.7,1.1h1.5c0.7,0,1.3-0.1,2-0.2v9.9
			c-0.5,0.2-1.2,0.3-1.9,0.6s-1.6,0.4-2.4,0.6s-1.7,0.3-2.5,0.4s-1.5,0.1-2.1,0.1c-2.5,0.1-5-0.5-7.2-1.8c-1.9-1.2-3.1-3.2-3.8-6.1
			c-2.9,2.8-6.5,4.9-10.4,6c-3.9,1.2-7.9,1.8-11.9,1.9c-2.8,0-5.7-0.4-8.4-1.2c-2.6-0.7-4.9-1.9-7.1-3.5c-2.1-1.6-3.7-3.6-4.9-5.9
			c-1.3-2.6-1.9-5.4-1.8-8.3c-0.1-3.4,0.6-6.7,2.2-9.8c1.4-2.4,3.4-4.4,5.8-5.9c2.5-1.5,5.2-2.5,8-3.1c3-0.6,5.9-1.1,8.9-1.4
			c2.4-0.5,4.9-0.8,7.4-1.1c2.1-0.2,4.2-0.5,6.2-1.1c1.6-0.4,3.1-1.2,4.2-2.3c1.1-1.3,1.7-3,1.6-4.7c0.1-1.6-0.4-3.2-1.3-4.5
			c-0.8-1.1-2-2.1-3.2-2.7c-1.4-0.6-2.8-1.1-4.3-1.2c-1.5-0.2-3-0.3-4.5-0.3c-3.5-0.1-6.9,0.7-9.9,2.5c-2.6,1.7-4.3,4.6-4.4,7.8
			h-14.3c0.1-3.7,1.1-7.2,3-10.4c1.7-2.7,4-5,6.7-6.6c2.8-1.7,5.9-2.9,9.2-3.5c3.5-0.7,7-1,10.5-1c3.2,0,6.3,0.3,9.4,1
			c2.9,0.6,5.8,1.7,8.3,3.2c2.4,1.4,4.4,3.4,5.9,5.8c1.6,2.6,2.3,5.6,2.2,8.7L571.2,105.8z M556.9,87.8c-2.4,1.5-5.2,2.4-8,2.6
			c-3.2,0.3-6.3,0.7-9.5,1.3c-1.5,0.2-3,0.6-4.4,1.1c-1.3,0.4-2.6,1.1-3.8,1.9c-1.1,0.8-2,1.9-2.6,3.1c-0.7,1.5-1,3.1-0.9,4.7
			c0,1.5,0.4,2.9,1.4,4c0.9,1.1,2,1.9,3.3,2.6c1.3,0.6,2.8,1.1,4.2,1.3c1.4,0.2,2.8,0.4,4.2,0.4c1.7,0,3.4-0.2,5.1-0.6
			c1.8-0.4,3.6-1.1,5.2-2.1c1.6-1,3-2.3,4.1-3.8c1.1-1.7,1.7-3.7,1.6-5.7L556.9,87.8z"/>
			<path class="st0" d="M580,55.5h10.8V36.1H605v19.4h12.9v10.6H605v34.5c0,1.3,0.1,2.6,0.2,3.9c0.1,1,0.4,1.9,0.9,2.8
			c0.5,0.8,1.2,1.4,2.1,1.7c1.2,0.4,2.5,0.6,3.8,0.6c1,0,2,0,3-0.1c1,0,2-0.2,3-0.4v11c-1.6,0.2-3.1,0.3-4.6,0.5
			c-1.5,0.2-3.1,0.2-4.6,0.2c-3.1,0.1-6.1-0.3-9.1-1.1c-2-0.6-3.9-1.6-5.4-3.1c-1.3-1.5-2.2-3.3-2.6-5.2c-0.5-2.3-0.8-4.7-0.8-7.1
			V66.1H580V55.5z"/>
			<path class="st0" d="M628.5,30.9h14.2v13.5h-14.2V30.9z M628.5,55.5h14.2v64.6h-14.2V55.5z"/>
			<path class="st0" d="M687.9,121.9c-4.7,0.1-9.4-0.8-13.8-2.6c-3.9-1.6-7.4-4-10.2-7.1c-2.9-3.1-5-6.8-6.4-10.8
			c-2.9-8.9-2.9-18.5,0-27.4c1.4-4,3.5-7.7,6.4-10.8c2.9-3.1,6.4-5.5,10.2-7.1c8.9-3.4,18.7-3.4,27.6,0c3.9,1.6,7.4,4,10.3,7.1
			c2.9,3.1,5,6.8,6.4,10.8c2.9,8.9,2.9,18.5,0,27.4c-1.4,4-3.5,7.6-6.4,10.8c-2.9,3.1-6.4,5.5-10.2,7.1
			C697.4,121.1,692.6,122,687.9,121.9z M687.9,110.6c2.9,0.1,5.7-0.6,8.2-2c2.3-1.3,4.3-3.1,5.8-5.2c1.5-2.2,2.6-4.7,3.3-7.3
			c1.4-5.4,1.4-11.1,0-16.6c-0.6-2.6-1.8-5.1-3.3-7.3c-1.5-2.1-3.5-3.9-5.8-5.2c-5.2-2.7-11.3-2.7-16.5,0c-2.3,1.3-4.2,3.1-5.8,5.2
			c-1.5,2.2-2.7,4.7-3.3,7.3c-1.4,5.4-1.4,11.1,0,16.6c0.7,2.6,1.8,5.1,3.3,7.3c1.5,2.2,3.5,4,5.8,5.2
			C682.2,110,685,110.7,687.9,110.6z"/>
			<path class="st0" d="M732.4,55.5h13.5V65l0.2,0.2c2.1-3.5,5-6.4,8.5-8.4c3.5-2,7.5-3.1,11.6-3.1c7.1,0,12.7,1.8,16.8,5.5
			s6.1,9.2,6.1,16.5v44.4h-14.2V79.5c-0.2-5.1-1.2-8.8-3.2-11.1s-5.1-3.4-9.4-3.4c-2.2,0-4.5,0.4-6.5,1.3c-1.9,0.8-3.5,2.1-4.9,3.6
			c-1.4,1.6-2.4,3.4-3.1,5.4c-0.8,2.1-1.1,4.4-1.1,6.6v38.1h-14.2V55.5z"/>
			<path class="st0" d="M858.3,105.8c-0.1,1.3,0.1,2.6,0.7,3.8c0.6,0.8,1.7,1.3,2.7,1.1h1.5c0.7,0,1.3-0.1,2-0.2v9.9
			c-0.5,0.2-1.2,0.3-1.9,0.6s-1.6,0.4-2.4,0.6s-1.7,0.3-2.5,0.4s-1.5,0.1-2.1,0.1c-2.5,0.1-5-0.5-7.2-1.8c-1.9-1.2-3.2-3.2-3.8-6.1
			c-2.9,2.8-6.5,4.9-10.4,6c-3.9,1.2-7.9,1.8-11.9,1.9c-2.8,0-5.7-0.4-8.4-1.2c-2.5-0.7-4.9-1.9-7.1-3.5c-2.1-1.6-3.7-3.6-4.9-5.9
			c-1.3-2.6-1.9-5.4-1.8-8.3c-0.1-3.4,0.6-6.7,2.2-9.8c1.4-2.4,3.4-4.4,5.8-5.9c2.5-1.5,5.2-2.5,8-3.1c3-0.6,5.9-1.1,8.9-1.4
			c2.4-0.5,4.9-0.8,7.4-1.1c2.1-0.2,4.2-0.5,6.2-1.1c1.6-0.4,3.1-1.2,4.2-2.3c1.1-1.3,1.7-3,1.6-4.7c0.1-1.6-0.4-3.2-1.3-4.5
			c-0.8-1.2-2-2.1-3.2-2.7c-1.4-0.6-2.8-1.1-4.3-1.2c-1.5-0.2-3-0.3-4.5-0.3c-3.5-0.1-6.9,0.7-9.9,2.5c-2.6,1.7-4.3,4.6-4.4,7.8H803
			c0.1-3.7,1.1-7.2,3-10.4c1.7-2.7,4-5,6.7-6.6c2.8-1.7,5.9-2.9,9.2-3.5c3.5-0.7,7-1,10.5-1c3.2,0,6.3,0.3,9.4,1
			c2.9,0.6,5.8,1.7,8.3,3.2c2.4,1.5,4.4,3.4,5.9,5.8c1.6,2.6,2.3,5.6,2.2,8.7L858.3,105.8z M844,87.8c-2.4,1.5-5.2,2.4-8,2.6
			c-3.2,0.3-6.3,0.7-9.5,1.3c-1.5,0.2-2.9,0.6-4.4,1.1c-1.3,0.4-2.6,1.1-3.8,1.9c-1.1,0.8-2,1.9-2.6,3.1c-0.7,1.5-1,3.1-0.9,4.7
			c0,1.5,0.4,2.9,1.4,4c0.9,1.1,2,1.9,3.3,2.6c1.3,0.6,2.8,1.1,4.2,1.3c1.4,0.2,2.8,0.4,4.2,0.4c1.7,0,3.4-0.2,5.1-0.6
			c1.8-0.4,3.6-1.1,5.2-2.1c1.6-1,3-2.3,4.1-3.8c1.1-1.7,1.7-3.7,1.6-5.7V87.8z"/>
			<path class="st0" d="M874,30.9h14.2v89.2H874V30.9z"/>
			<path class="st0" d="M940.5,30.9h15.6v75.8h45.4v13.5h-61V30.9z"/>
			<path class="st0" d="M1010.7,30.9h14.2v13.5h-14.2V30.9z M1010.7,55.5h14.2v64.6h-14.2V55.5z"/>
			<path class="st0" d="M1040.8,30.9h14.2v33h0.2c1-1.6,2.2-3,3.6-4.2c1.4-1.3,3-2.3,4.7-3.2c1.7-0.9,3.5-1.5,5.4-2
			c1.8-0.4,3.7-0.7,5.6-0.7c4.6-0.1,9.1,0.8,13.3,2.7c3.7,1.7,6.9,4.2,9.4,7.4c2.6,3.2,4.5,7,5.6,10.9c1.3,4.3,1.9,8.8,1.9,13.4
			c0,4.3-0.6,8.5-1.7,12.6c-1,3.9-2.8,7.6-5.1,10.8c-4.9,6.7-12.8,10.6-21.1,10.3c-2.2,0-4.4-0.2-6.6-0.4c-2.2-0.3-4.3-0.8-6.3-1.7
			c-2-0.8-3.8-1.9-5.4-3.2c-1.7-1.4-3.1-3.2-4.1-5.2h-0.2v8.9h-13.5L1040.8,30.9z M1090.5,87.9c0-2.9-0.4-5.7-1.1-8.5
			c-0.7-2.6-1.8-5.1-3.4-7.3c-1.5-2.1-3.4-3.9-5.6-5.1c-2.4-1.3-5-2-7.8-1.9c-6,0-10.5,2.1-13.6,6.2c-3,4.2-4.6,9.7-4.6,16.6
			c0,3.1,0.4,6.1,1.2,9.1c0.7,2.6,1.9,5.1,3.6,7.2c1.5,2,3.5,3.6,5.7,4.8c2.4,1.2,5,1.8,7.7,1.8c2.9,0.1,5.7-0.6,8.2-2
			c2.2-1.3,4.1-3.1,5.6-5.2c1.5-2.2,2.6-4.7,3.1-7.2C1090.2,93.5,1090.5,90.7,1090.5,87.9z"/>
			<path class="st0" d="M1116.8,55.5h13.4V68h0.2c0.5-1.9,1.3-3.6,2.4-5.1c1.2-1.7,2.7-3.2,4.4-4.6c1.7-1.4,3.6-2.5,5.7-3.3
			c2-0.8,4.2-1.2,6.4-1.2c1.1,0,2.3,0,3.4,0.1l1.9,0.2v13.8c-1-0.2-2-0.3-3.1-0.4c-1-0.1-2-0.2-3.1-0.2c-2.3,0-4.7,0.5-6.8,1.4
			c-2.2,1-4.1,2.4-5.6,4.2c-1.7,2.1-2.9,4.4-3.8,6.9c-1,3.1-1.4,6.3-1.4,9.5v30.8h-14.2L1116.8,55.5z"/>
			<path class="st0" d="M1214.9,105.8c-0.1,1.3,0.1,2.6,0.7,3.8c0.6,0.8,1.7,1.3,2.7,1.1h1.5c0.7,0,1.3-0.1,2-0.2v9.9
			c-0.5,0.2-1.2,0.3-1.9,0.6s-1.6,0.4-2.4,0.6s-1.7,0.3-2.5,0.4s-1.5,0.1-2.1,0.1c-2.5,0.1-5-0.5-7.2-1.8c-1.9-1.2-3.2-3.2-3.8-6.1
			c-2.9,2.8-6.5,4.9-10.4,6c-3.9,1.2-7.9,1.8-11.9,1.9c-2.8,0-5.7-0.4-8.4-1.2c-2.5-0.7-4.9-1.9-7.1-3.5c-2.1-1.6-3.7-3.6-4.9-5.9
			c-1.3-2.6-1.9-5.4-1.8-8.3c-0.1-3.4,0.6-6.8,2.2-9.8c1.4-2.4,3.4-4.4,5.8-5.9c2.5-1.5,5.2-2.5,8-3.1c3-0.6,5.9-1.1,8.9-1.4
			c2.4-0.5,4.9-0.8,7.4-1.1c2.1-0.2,4.2-0.5,6.2-1.1c1.6-0.4,3.1-1.2,4.2-2.3c1.1-1.3,1.7-3,1.6-4.7c0.1-1.6-0.4-3.2-1.3-4.5
			c-0.8-1.1-2-2.1-3.2-2.7c-1.4-0.6-2.8-1.1-4.3-1.2c-1.5-0.2-3-0.3-4.5-0.3c-3.5-0.1-6.9,0.7-9.9,2.5c-2.6,1.7-4.3,4.6-4.4,7.8
			h-14.2c0.1-3.7,1.1-7.2,3-10.4c1.7-2.7,4-5,6.7-6.6c2.8-1.7,5.9-2.9,9.2-3.5c3.5-0.7,7-1,10.5-1c3.2,0,6.3,0.3,9.4,1
			c2.9,0.6,5.8,1.7,8.3,3.2c2.4,1.4,4.4,3.4,5.9,5.8c1.6,2.6,2.3,5.6,2.2,8.7L1214.9,105.8z M1200.6,87.8c-2.4,1.5-5.2,2.4-8,2.6
			c-3.2,0.3-6.3,0.7-9.5,1.3c-1.5,0.2-2.9,0.6-4.4,1.1c-1.3,0.4-2.6,1.1-3.8,1.9c-1.1,0.8-2,1.9-2.6,3.1c-0.7,1.5-1,3.1-0.9,4.7
			c0,1.5,0.4,2.9,1.4,4c0.9,1.1,2,2,3.3,2.6c1.3,0.6,2.8,1.1,4.2,1.3c1.4,0.2,2.8,0.4,4.2,0.4c1.7,0,3.4-0.2,5.1-0.6
			c1.8-0.4,3.6-1.1,5.2-2.1c1.6-1,3-2.3,4.1-3.8c1.1-1.7,1.7-3.7,1.6-5.7V87.8z"/>
			<path class="st0" d="M1230.3,55.5h13.4V68h0.2c0.5-1.9,1.3-3.6,2.4-5.1c1.2-1.7,2.7-3.2,4.4-4.6c1.7-1.4,3.6-2.5,5.7-3.3
			c2-0.8,4.2-1.2,6.4-1.2c1.1,0,2.3,0,3.4,0.1l1.9,0.2v13.8c-1-0.2-2-0.3-3.1-0.4c-1-0.1-2-0.2-3.1-0.2c-2.3,0-4.7,0.5-6.8,1.4
			c-2.2,1-4.1,2.4-5.6,4.2c-1.7,2.1-2.9,4.4-3.8,6.9c-1,3.1-1.4,6.3-1.4,9.5v30.8h-14.2L1230.3,55.5z"/>
			<path class="st0" d="M1267.1,55.5h15.6l16.9,48.2h0.2l16.4-48.2h14.9l-25.1,68.1c-1.2,2.9-2.3,5.7-3.4,8.4c-1,2.5-2.4,4.9-4.1,7.1
			c-1.6,2-3.7,3.7-6.1,4.9c-2.9,1.3-6.1,1.9-9.2,1.8c-3.3,0-6.6-0.2-9.9-0.8v-12c1.2,0.2,2.3,0.4,3.4,0.6c1.1,0.2,2.2,0.3,3.4,0.3
			c1.4,0,2.8-0.2,4.1-0.6c1-0.4,2-1,2.7-1.8c0.7-0.8,1.4-1.8,1.8-2.8c0.6-1.2,1-2.5,1.4-3.8l1.6-5L1267.1,55.5z"/>
			<path class="st0" d="M1403.5,121.9c-4.7,0.1-9.4-0.8-13.8-2.6c-3.9-1.6-7.4-4-10.2-7.1c-2.9-3.1-5-6.8-6.4-10.8
			c-2.9-8.9-2.9-18.5,0-27.4c1.4-4,3.5-7.7,6.4-10.8c2.9-3.1,6.4-5.5,10.2-7.1c8.9-3.4,18.7-3.4,27.6,0c3.9,1.6,7.4,4,10.2,7.1
			c2.9,3.1,5.1,6.8,6.4,10.7c2.9,8.9,2.9,18.5,0,27.4c-1.4,4-3.5,7.6-6.4,10.8c-2.9,3.1-6.4,5.5-10.2,7.1
			C1413,121.1,1408.3,122,1403.5,121.9z M1403.5,110.6c2.9,0.1,5.7-0.6,8.2-2c2.3-1.3,4.3-3.1,5.8-5.2c1.5-2.2,2.6-4.7,3.3-7.3
			c1.4-5.4,1.4-11.1,0-16.6c-0.6-2.6-1.8-5.1-3.3-7.3c-1.5-2.1-3.5-3.9-5.8-5.2c-5.2-2.7-11.3-2.7-16.5,0c-2.3,1.3-4.2,3-5.8,5.2
			c-1.5,2.2-2.7,4.7-3.3,7.3c-1.4,5.4-1.4,11.1,0,16.6c0.7,2.6,1.8,5.1,3.3,7.3c1.5,2.2,3.5,4,5.8,5.2
			C1397.8,110,1400.6,110.7,1403.5,110.6z"/>
			<path class="st0" d="M1441.6,55.5h10.6v-5.4c-0.1-3.4,0.4-6.7,1.5-9.9c0.8-2.3,2.2-4.3,4-5.9c1.6-1.4,3.6-2.3,5.7-2.8
			c2.2-0.5,4.4-0.7,6.7-0.7c3.4-0.1,6.7,0.2,10,0.9v11.1c-1-0.3-1.9-0.4-2.9-0.6c-1.2-0.1-2.5-0.2-3.7-0.2c-1.7,0-3.5,0.4-4.9,1.4
			c-1.4,0.9-2.1,2.7-2.1,5.4v6.6h12.1v10.6h-12.1v54h-14.2v-54h-10.6V55.5z"/>
			<path class="st0" d="M1523.9,30.9h22l24.6,69.9h0.2l24-69.9h21.8v89.2h-14.9V51.3h-0.2l-24.8,68.9h-12.9L1539,51.3h-0.2v68.9
			h-14.9L1523.9,30.9z"/>
			<path class="st0" d="M1644.4,91.5c0,2.5,0.3,4.9,1.1,7.2c0.7,2.2,1.7,4.3,3.2,6.1c1.5,1.8,3.3,3.2,5.4,4.2
			c2.4,1.1,5.1,1.6,7.8,1.6c4.2,0,7.5-0.9,10.1-2.7c2.7-2,4.7-4.8,5.7-8.1h13.5c-1.3,6.6-5.1,12.4-10.5,16.3
			c-2.6,1.9-5.6,3.3-8.7,4.2c-3.3,1-6.7,1.5-10.1,1.4c-4.6,0.1-9.2-0.8-13.5-2.5c-3.8-1.6-7.2-4-9.9-7c-2.8-3.1-4.9-6.8-6.1-10.8
			c-1.4-4.4-2.1-9.1-2.1-13.8c0-4.4,0.7-8.9,2.2-13.1c1.4-4,3.5-7.7,6.2-10.9c5.7-6.6,14.1-10.4,22.8-10.2c4.8-0.1,9.5,1,13.7,3.2
			c3.9,2,7.4,4.9,10.1,8.4c2.7,3.6,4.7,7.7,5.9,12.1c1.2,4.6,1.5,9.4,0.9,14.1H1644.4z M1677.6,82.1c-0.2-2.2-0.6-4.4-1.4-6.5
			c-0.7-2-1.8-3.8-3.2-5.4c-1.4-1.6-3.1-2.8-5-3.8c-2-1-4.3-1.5-6.6-1.4c-2.3,0-4.7,0.4-6.8,1.3c-2,0.8-3.8,2.1-5.2,3.6
			c-1.5,1.6-2.7,3.4-3.5,5.4c-0.9,2.1-1.4,4.4-1.4,6.8H1677.6z"/>
			<path class="st0" d="M1763.6,120.1h-13.5v-8.8h-0.2c-1.8,3.6-4.7,6.4-8.4,8.1c-3.7,1.6-7.6,2.5-11.6,2.4
			c-4.6,0.1-9.1-0.8-13.3-2.7c-3.7-1.7-6.9-4.2-9.4-7.3c-2.6-3.2-4.5-7-5.6-10.9c-1.3-4.4-1.9-9-1.9-13.6
			c-0.1-5.1,0.7-10.3,2.4-15.1c1.4-3.9,3.5-7.5,6.3-10.5c2.5-2.7,5.6-4.7,9-6.1c3.3-1.3,6.8-1.9,10.3-1.9c2.1,0,4.1,0.2,6.1,0.6
			c2.1,0.4,4.1,1,6,1.8c1.9,0.8,3.7,1.9,5.3,3.2c1.6,1.3,3,2.8,4.1,4.6h0.2v-33h14.2L1763.6,120.1z M1713.9,88.5
			c0,2.7,0.4,5.5,1.1,8.1c0.7,2.5,1.8,5,3.2,7.1c1.4,2.1,3.3,3.8,5.6,5c2.5,1.3,5.2,1.9,8,1.9c2.9,0.1,5.7-0.6,8.2-2
			c2.3-1.3,4.2-3.1,5.6-5.2c1.5-2.2,2.6-4.7,3.2-7.3c0.7-2.7,1.1-5.5,1.1-8.3c0-7.2-1.6-12.8-4.8-16.8c-3.1-4-8-6.2-13.1-6
			c-2.9-0.1-5.9,0.6-8.4,2.1c-2.3,1.3-4.2,3.2-5.6,5.4c-1.5,2.3-2.5,4.8-3.1,7.5C1714.2,82.7,1713.9,85.6,1713.9,88.5z"/>
			<path class="st0" d="M1779.5,30.9h14.2v13.5h-14.2V30.9z M1779.5,55.5h14.2v64.6h-14.2V55.5z"/>
			<path class="st0" d="M1852.9,77.1c-0.6-4-2.2-7-4.8-9.1c-2.9-2.1-6.4-3.2-9.9-3.1c-2,0-4,0.3-5.9,0.9c-2.2,0.7-4.1,1.9-5.8,3.5
			c-2,2-3.4,4.5-4.4,7.1c-1.3,3.8-1.9,7.9-1.8,11.9c0,2.7,0.3,5.4,0.9,8c0.6,2.5,1.6,4.9,3,7.1c1.4,2.1,3.2,3.8,5.3,5.1
			c2.4,1.4,5.1,2,7.9,1.9c3.8,0.1,7.5-1.3,10.3-3.9c2.7-2.6,4.4-6.2,5.1-10.9h14.2c-1.3,8.4-4.5,14.9-9.6,19.3s-11.7,6.7-20.1,6.7
			c-4.6,0.1-9.2-0.8-13.4-2.6c-3.7-1.6-7.1-4-9.8-7c-2.7-3.1-4.8-6.7-6.1-10.6c-1.4-4.3-2.1-8.8-2.1-13.2c0-4.6,0.6-9.2,2-13.6
			c1.2-4.1,3.3-7.8,6-11.1c2.7-3.2,6.1-5.7,9.9-7.4c4.4-1.9,9.1-2.8,13.9-2.7c3.6,0,7.2,0.5,10.7,1.4c3.2,0.9,6.3,2.4,9,4.3
			c2.6,1.9,4.8,4.4,6.4,7.2c1.7,3.2,2.8,6.7,3,10.4H1852.9z"/>
			<path class="st0" d="M1879.1,30.9h14.2v13.5h-14.2V30.9z M1879.1,55.5h14.2v64.6h-14.2V55.5z"/>
			<path class="st0" d="M1908.9,55.5h13.5V65l0.2,0.2c2.1-3.5,5-6.4,8.5-8.4c3.5-2,7.5-3.1,11.6-3.1c7.1,0,12.7,1.8,16.8,5.5
			s6.1,9.2,6.1,16.5v44.4h-14.2V79.5c-0.2-5.1-1.2-8.8-3.2-11.1s-5.1-3.4-9.4-3.4c-2.2,0-4.5,0.4-6.5,1.3c-1.9,0.8-3.5,2.1-4.9,3.6
			c-1.4,1.6-2.4,3.4-3.1,5.4c-0.8,2.1-1.1,4.4-1.1,6.6v38.1h-14.2V55.5z"/>
			<path class="st0" d="M1991.8,91.5c0,2.5,0.3,4.9,1.1,7.2c0.7,2.2,1.7,4.3,3.2,6.1c1.5,1.8,3.3,3.2,5.4,4.2
			c2.4,1.1,5.1,1.6,7.8,1.6c4.2,0,7.5-0.9,10.1-2.7c2.7-2,4.7-4.8,5.7-8.1h13.5c-1.3,6.6-5.1,12.4-10.5,16.3
			c-2.6,1.9-5.6,3.3-8.7,4.2c-3.3,1-6.7,1.5-10.1,1.4c-4.6,0.1-9.2-0.8-13.5-2.5c-3.8-1.6-7.2-4-9.9-7c-2.8-3.1-4.9-6.8-6.1-10.8
			c-1.4-4.4-2.1-9.1-2.1-13.8c0-4.4,0.7-8.9,2.2-13.1c1.4-4,3.5-7.7,6.3-10.9c5.7-6.6,14.1-10.4,22.8-10.2c4.8-0.1,9.5,1,13.7,3.2
			c3.9,2,7.4,4.9,10.1,8.4c2.7,3.6,4.7,7.7,5.8,12.1c1.2,4.6,1.5,9.4,0.9,14.1L1991.8,91.5z M2025,82.1c-0.2-2.2-0.6-4.4-1.4-6.5
			c-0.7-2-1.8-3.8-3.2-5.4c-1.4-1.6-3.1-2.8-5-3.8c-2-1-4.3-1.5-6.6-1.4c-2.3,0-4.7,0.4-6.8,1.3c-2,0.8-3.8,2.1-5.2,3.6
			c-1.5,1.6-2.7,3.4-3.5,5.4c-0.9,2.1-1.4,4.4-1.4,6.8H2025z"/>
			<path class="st0" d="M438.2,164.6l-9.9,47.6h28.3l-1.3,6h-35.5l11.2-53.6H438.2z"/>
			<path class="st0" d="M475.1,179.3l-8.1,38.8h-6.3l8-38.8H475.1z M470.1,172.3l1.6-7.8h6.5l-1.6,7.8H470.1z"/>
			<path class="st0" d="M502,185.8c-1.7-1.2-3.7-1.7-5.8-1.7c-1,0-2,0.1-2.9,0.2c-0.9,0.1-1.8,0.4-2.7,0.8c-0.7,0.4-1.4,0.9-1.9,1.5
			c-0.5,0.7-0.8,1.6-0.7,2.4c0,0.9,0.3,1.7,0.9,2.3c0.7,0.7,1.5,1.3,2.3,1.8c1.1,0.6,2.2,1.1,3.3,1.5l3.7,1.5
			c1.3,0.6,2.6,1.2,3.8,1.8c1.2,0.6,2.3,1.3,3.3,2.2c0.9,0.8,1.7,1.8,2.3,2.9c0.6,1.2,0.9,2.6,0.9,3.9c0.1,1.9-0.4,3.8-1.4,5.5
			c-0.9,1.5-2.2,2.8-3.7,3.7c-1.6,1-3.3,1.7-5.1,2.1c-1.9,0.4-3.8,0.6-5.7,0.6c-2.1,0-4.2-0.2-6.2-0.6c-1.8-0.4-3.4-1.1-4.9-2.1
			c-1.4-1-2.5-2.4-3.3-4c-0.9-2-1.3-4.1-1.2-6.3h6.3c-0.1,1.2,0.1,2.5,0.6,3.6c0.5,1,1.3,1.8,2.2,2.3c1,0.6,2.1,1,3.2,1.2
			c1.3,0.3,2.6,0.4,3.9,0.4c1.1,0,2.1-0.1,3.1-0.3c1-0.2,2-0.5,2.9-1c0.8-0.4,1.5-1.1,2.1-1.8c0.5-0.8,0.8-1.8,0.8-2.8
			c0-0.9-0.3-1.8-0.9-2.4c-0.7-0.7-1.5-1.3-2.3-1.8c-1-0.6-2.1-1.1-3.3-1.5c-1.2-0.5-2.5-1-3.7-1.5s-2.6-1.1-3.8-1.6
			c-1.2-0.6-2.3-1.3-3.3-2.1c-1-0.8-1.8-1.8-2.3-2.9c-0.6-1.2-0.9-2.5-0.9-3.8c0-1.7,0.4-3.3,1.2-4.8c0.8-1.4,1.9-2.6,3.3-3.5
			c1.4-0.9,3-1.7,4.6-2.1c1.7-0.5,3.5-0.8,5.3-0.8c1.8,0,3.6,0.2,5.3,0.6c1.7,0.4,3.3,1.1,4.7,2.1c1.4,1,2.5,2.3,3.3,3.8
			c0.9,1.8,1.3,3.7,1.3,5.7h-6.4C504.5,188.8,503.6,186.9,502,185.8z"/>
			<path class="st0" d="M538,179.3l-1.2,5.7h-7.7l-4.8,22.8c0,0.4-0.1,0.9-0.2,1.3c-0.1,0.4-0.1,0.8-0.1,1.3
			c-0.1,0.9,0.4,1.7,1.2,2.1c0.8,0.4,1.7,0.6,2.7,0.6c0.6,0,1.3-0.1,1.9-0.2c0.6-0.1,1.2-0.3,1.8-0.5l-1.1,5.9
			c-0.8,0.1-1.5,0.2-2.2,0.3c-0.7,0.1-1.5,0.1-2.2,0.1c-1.1,0-2.3-0.1-3.4-0.3c-1-0.2-1.9-0.5-2.7-1c-0.8-0.5-1.4-1.1-1.9-1.9
			c-0.5-0.9-0.8-2-0.7-3.1c0-0.5,0-1.1,0.1-1.6c0.1-0.5,0.2-1.1,0.3-1.6l5.1-24h-6.5l1.2-5.6h6.5l2.4-11.5h6.4l-2.4,11.5L538,179.3z
			"/>
			<path class="st0" d="M544.5,204c0,1.4,0.3,2.7,0.8,4c0.5,1.1,1.3,2.1,2.2,2.9c1,0.8,2.1,1.4,3.2,1.8c1.2,0.4,2.5,0.6,3.8,0.6
			c2.5,0.1,4.9-0.6,7-1.9c1.9-1.4,3.4-3.3,4.1-5.5h6.4c-0.4,2-1.3,3.9-2.4,5.7c-1.1,1.6-2.4,2.9-4,4c-1.6,1.1-3.3,1.9-5.2,2.4
			c-2,0.6-4,0.8-6,0.8c-2.7,0.1-5.5-0.4-8-1.5c-2-0.8-3.7-2.1-5.1-3.8c-1.2-1.5-2.1-3.2-2.6-5c-0.5-1.7-0.7-3.5-0.8-5.3
			c0-3.5,0.5-6.9,1.6-10.2c1-2.9,2.4-5.6,4.3-7.9c1.7-2.1,3.9-3.9,6.4-5.1c2.4-1.2,5-1.8,7.6-1.8c5.7,0,9.9,1.5,12.5,4.5
			s3.9,7.2,3.9,12.7c0,1-0.1,1.9-0.2,2.9c-0.2,0.9-0.3,1.6-0.4,2.2h-29.1C544.5,201.7,544.4,202.9,544.5,204z M567.8,191
			c-0.2-1.3-0.8-2.5-1.5-3.5c-0.7-1-1.7-1.9-2.9-2.5c-1.4-0.7-2.9-1-4.4-0.9c-1.7,0-3.4,0.3-5,0.9c-1.4,0.5-2.7,1.4-3.9,2.4
			c-1.1,1-2,2.2-2.8,3.5c-0.8,1.3-1.4,2.8-1.8,4.2h22.5C568.2,193.7,568.1,192.3,567.8,191z"/>
			<path class="st0" d="M591.3,179.3l-1.9,8.3h0.2c1.4-2.6,3.4-4.8,5.7-6.6c2.4-1.8,5.4-2.7,8.4-2.6c0.4,0,0.7,0,1.1-0.1
			c0.4,0,0.8,0,1.1,0.1l-1.5,6.8c-0.3-0.1-0.7-0.1-1-0.1h-0.9c-0.8,0-1.5,0-2,0c-0.6,0.1-1.3,0.2-1.9,0.3c-1.7,0.4-3.3,1.2-4.7,2.3
			c-1.4,1.1-2.6,2.5-3.6,4c-0.9,1.4-1.6,2.8-2,4.4c-0.5,1.7-0.9,3.2-1.2,4.7l-3.7,17.2h-6.3l8-38.8H591.3z"/>
			<path class="st0" d="M642.4,164.6l-4.9,23h28l4.8-23h7.1l-11.2,53.6h-7.1l5.2-24.5h-28l-5.2,24.5H624l11.2-53.6H642.4z"/>
			<path class="st0" d="M691.7,179.3l-8.1,38.8h-6.3l8-38.8H691.7z M686.7,172.3l1.7-7.8h6.5l-1.7,7.8H686.7z"/>
			<path class="st0" d="M711.5,164.6l-11.2,53.6h-6.3l11.2-53.6H711.5z"/>
			<path class="st0" d="M728.1,164.6l-11.2,53.6h-6.3l11.2-53.6H728.1z"/>
			<path class="st0" d="M767.9,164.6l19.1,44.3h0.2l8.9-44.3h6.9l-11.3,53.6H784l-19-44h-0.2l-9.1,44h-6.9l11.3-53.6H767.9z"/>
			<path class="st0" d="M808.5,185.4c1-1.5,2.3-2.9,3.8-3.9c1.5-1.1,3.3-1.9,5.1-2.3c1.9-0.5,3.9-0.8,5.9-0.8c1.8,0,3.6,0.1,5.4,0.4
			c1.6,0.3,3.1,0.8,4.5,1.6c1.3,0.7,2.4,1.8,3.1,3c0.8,1.5,1.2,3.2,1.2,4.8c0,1.2-0.2,2.4-0.4,3.6c-0.3,1.3-0.5,2.4-0.8,3.5
			l-2.5,10.7c-0.1,0.8-0.4,1.7-0.6,2.7c-0.3,0.9-0.4,1.9-0.4,2.9c-0.1,0.7,0.1,1.3,0.5,1.9c0.4,0.4,0.8,0.5,1.3,0.5
			c0.3,0,0.7-0.1,1-0.2l1-0.3l-1,4.7c-0.6,0.2-1.3,0.4-1.9,0.6c-0.7,0.2-1.3,0.3-2,0.3c-1.5,0.1-2.9-0.4-4-1.4c-0.9-1.1-1.3-2.6-1-4
			l-0.2-0.1c-1.3,1.8-3,3.2-5,4.1c-2.5,1.1-5.3,1.5-8,1.4c-1.6,0-3.1-0.2-4.6-0.6c-2.8-0.7-5.1-2.6-6.2-5.2c-0.7-1.6-1-3.3-0.9-5.1
			c-0.1-2.4,0.5-4.7,1.8-6.7c1.2-1.6,2.8-2.9,4.7-3.6c2-0.9,4.1-1.4,6.3-1.7c2.3-0.3,4.5-0.5,6.7-0.8c1.7-0.1,3.2-0.3,4.4-0.5
			c1-0.1,2.1-0.4,3-0.9c0.8-0.4,1.4-1,1.8-1.7c0.4-1,0.6-2,0.6-3.1c0-0.9-0.2-1.8-0.8-2.6c-0.5-0.6-1.1-1.2-1.9-1.5
			c-0.8-0.4-1.6-0.6-2.5-0.8c-0.9-0.1-1.8-0.2-2.7-0.2c-1.2,0-2.4,0.1-3.6,0.4c-1.1,0.2-2.2,0.6-3.2,1.2c-0.9,0.6-1.8,1.3-2.4,2.2
			c-0.7,0.9-1.1,2-1.3,3.2h-6.4C806.7,189.1,807.4,187.1,808.5,185.4z M810.3,212c1.4,0.9,3.1,1.4,4.8,1.4c5,0,8.7-1.7,10.9-5.1
			c1-1.4,1.8-3,2.1-4.7c0.4-1.7,0.8-3.5,1.2-5.2h-0.2c-1,0.7-2.2,1.2-3.4,1.4c-1.4,0.3-2.8,0.5-4.4,0.6s-3.1,0.3-4.7,0.6
			c-1.5,0.2-2.9,0.6-4.2,1.1c-1.2,0.5-2.2,1.2-3.1,2.1c-0.9,1.1-1.3,2.5-1.3,3.9C808.1,209.6,808.9,211.1,810.3,212L810.3,212z"/>
			<path class="st0" d="M865.7,179.3l-1.2,5.6h-7.7l-4.8,22.8c0,0.4-0.1,0.9-0.2,1.3c-0.1,0.4-0.1,0.8-0.1,1.3
			c-0.1,0.9,0.4,1.7,1.2,2.1c0.8,0.4,1.7,0.6,2.7,0.6c0.6,0,1.3-0.1,1.9-0.2c0.6-0.1,1.2-0.3,1.8-0.5l-1.1,5.9
			c-0.8,0.1-1.5,0.2-2.2,0.3c-0.7,0.1-1.5,0.1-2.2,0.1c-1.1,0-2.3-0.1-3.4-0.3c-1-0.2-1.9-0.5-2.7-1c-0.8-0.5-1.4-1.1-1.9-1.9
			c-0.5-0.9-0.8-2-0.7-3.1c0-0.5,0-1,0.1-1.6c0.1-0.5,0.2-1.1,0.3-1.6l5.1-24.1h-6.5l1.2-5.6h6.5l2.4-11.5h6.4l-2.4,11.5H865.7z"/>
			<path class="st0" d="M879.2,179.3l-8.1,38.8h-6.3l8-38.8H879.2z M874.2,172.3l1.7-7.8h6.5l-1.7,7.8H874.2z"/>
			<path class="st0" d="M884.5,193.7c0.9-2.8,2.4-5.5,4.3-7.8c1.9-2.3,4.2-4.1,6.8-5.4c2.8-1.4,6-2.1,9.1-2c5.3,0,9.3,1.4,12,4.1
			c2.7,2.7,4.1,6.7,4.1,12c0,3.1-0.5,6.2-1.4,9.1c-0.9,2.9-2.3,5.5-4.2,7.8c-1.8,2.3-4.1,4.1-6.8,5.4c-2.8,1.4-5.9,2.1-9.1,2
			c-2.3,0-4.7-0.4-6.9-1.2c-3.9-1.5-6.9-4.5-8.4-8.4c-0.8-2.1-1.2-4.3-1.1-6.5C883,199.7,883.5,196.6,884.5,193.7z M892.1,210.5
			c1.8,1.9,4.5,2.9,8,2.9c2.2,0,4.4-0.6,6.2-1.8c1.8-1.2,3.3-2.7,4.5-4.5c1.2-1.8,2.2-3.9,2.8-6c0.6-2,0.9-4,0.9-6.1
			c0-1.4-0.2-2.9-0.6-4.3c-0.7-2.6-2.6-4.7-5.1-5.8c-1.4-0.6-3-0.9-4.5-0.9c-2.3,0-4.5,0.6-6.5,1.8c-1.8,1.2-3.4,2.7-4.7,4.5
			c-1.3,1.8-2.2,3.9-2.8,6c-0.6,2-0.9,4.2-0.9,6.3C889.2,205.5,890.2,208.3,892.1,210.5z"/>
			<path class="st0" d="M938.7,179.3l-1.2,5.9h0.2c1.5-2.2,3.6-3.9,6.1-5.1c2.4-1.1,5.1-1.7,7.7-1.7c3.6,0,6.4,0.8,8.1,2.4
			s2.7,4.1,2.7,7.6c0,1.1-0.1,2.2-0.3,3.3c-0.2,1.4-0.5,2.8-0.8,4.3l-4.7,22.1H950l5-22.6c0-0.4,0.1-0.9,0.2-1.4s0.2-1.1,0.3-1.6
			s0.2-1.1,0.3-1.6c0.1-0.4,0.1-0.9,0.1-1.3c0.1-1.6-0.6-3.2-2-4.1c-1.4-0.9-3.1-1.4-4.8-1.3c-1.8,0-3.6,0.5-5.2,1.3
			c-1.7,0.8-3.1,1.9-4.4,3.2c-1.2,1-2.1,2.2-2.7,3.6c-0.7,1.4-1.2,2.9-1.6,4.5l-4.5,21.4h-6.3l8.1-38.8L938.7,179.3z"/>
			<path class="st0" d="M972.4,185.4c1-1.5,2.3-2.9,3.8-3.9c1.5-1.1,3.3-1.9,5.1-2.3c1.9-0.5,3.9-0.8,5.9-0.8c1.8,0,3.6,0.1,5.4,0.4
			c1.6,0.3,3.1,0.8,4.5,1.6c1.3,0.7,2.3,1.8,3.1,3c0.8,1.5,1.2,3.1,1.2,4.8c0,1.2-0.2,2.4-0.4,3.6c-0.3,1.3-0.5,2.4-0.8,3.5
			l-2.5,10.7c-0.2,0.8-0.4,1.7-0.6,2.7c-0.3,0.9-0.4,1.9-0.4,2.9c-0.1,0.7,0.1,1.3,0.5,1.9c0.4,0.4,0.8,0.5,1.3,0.5
			c0.3,0,0.7-0.1,1-0.2l1-0.3l-1,4.7c-0.6,0.2-1.3,0.4-1.9,0.6c-0.7,0.2-1.3,0.3-2,0.3c-1.5,0.1-2.9-0.4-4-1.4c-0.9-1.1-1.3-2.6-1-4
			l-0.2-0.1c-1.3,1.8-3,3.2-5,4.1c-2.5,1.1-5.3,1.5-8,1.4c-1.6,0-3.1-0.2-4.6-0.6c-1.4-0.3-2.6-1-3.7-1.9c-1.1-0.9-1.9-2.1-2.5-3.4
			c-0.7-1.6-1-3.3-0.9-5.1c-0.1-2.4,0.5-4.7,1.8-6.7c1.2-1.6,2.8-2.9,4.7-3.6c2-0.9,4.1-1.4,6.3-1.7c2.3-0.3,4.5-0.6,6.7-0.8
			c1.7-0.1,3.2-0.3,4.4-0.5c1-0.1,2.1-0.4,3-0.9c0.8-0.4,1.4-1,1.8-1.7c0.4-1,0.6-2,0.6-3.1c0-0.9-0.2-1.8-0.8-2.6
			c-0.5-0.6-1.1-1.2-1.9-1.5c-0.8-0.4-1.6-0.6-2.5-0.8c-0.9-0.1-1.8-0.2-2.7-0.2c-1.2,0-2.4,0.1-3.6,0.4c-1.1,0.2-2.2,0.6-3.2,1.2
			c-0.9,0.6-1.8,1.3-2.4,2.2c-0.7,0.9-1.1,2-1.3,3.2h-6.4C970.6,189,971.3,187.1,972.4,185.4z M974.2,212c1.4,0.9,3.1,1.4,4.8,1.4
			c5.1,0,8.7-1.7,10.9-5.1c1-1.4,1.8-3,2.1-4.7c0.4-1.7,0.8-3.4,1.2-5.2h-0.1c-1,0.7-2.2,1.2-3.4,1.4c-1.4,0.3-2.8,0.5-4.4,0.6
			s-3.1,0.3-4.7,0.6c-1.5,0.2-2.9,0.6-4.2,1.1c-1.2,0.4-2.2,1.2-3.1,2.1c-0.9,1.1-1.3,2.5-1.3,3.9C972,209.6,972.8,211.2,974.2,212
			L974.2,212z"/>
			<path class="st0" d="M1022.6,164.6l-11.2,53.6h-6.3l11.2-53.6H1022.6z"/>
			<path class="st0" d="M1084.5,214.2c-3.9,3.4-9.2,5.1-15.8,5.1c-7.3,0-13-2-17-6.1s-6-9.8-6-17.3c0-4.2,0.6-8.4,2-12.4
			c1.3-3.8,3.2-7.3,5.8-10.4c5.3-6.4,13.3-10,21.6-9.8c2.7,0,5.4,0.4,8.1,1.2c2.4,0.7,4.6,1.9,6.4,3.4c1.9,1.6,3.3,3.5,4.3,5.8
			c1.1,2.6,1.6,5.3,1.6,8.1h-7.1c0-4.2-1.2-7.3-3.7-9.4c-2.7-2.2-6.1-3.3-9.6-3.1c-3.4-0.1-6.8,0.7-9.8,2.4
			c-2.7,1.5-5.1,3.6-6.9,6.1c-1.9,2.6-3.3,5.4-4.2,8.5c-0.9,3.1-1.4,6.4-1.4,9.6c0,2.4,0.3,4.8,1,7.1c0.6,2,1.6,3.9,2.9,5.5
			c1.3,1.6,3,2.8,4.9,3.6c2.2,0.9,4.6,1.3,7,1.3c4.4,0,8-1.2,10.7-3.5c2.9-2.6,5-6,5.8-9.9h7.1C1091,206,1088.4,210.7,1084.5,214.2z
			"/>
			<path class="st0" d="M1104.2,204c0,1.4,0.3,2.7,0.8,4c0.5,1.1,1.3,2.1,2.2,2.9c1,0.8,2.1,1.4,3.2,1.8c1.2,0.4,2.5,0.6,3.8,0.6
			c2.5,0.1,4.9-0.6,7-1.9c1.9-1.4,3.4-3.3,4.1-5.5h6.4c-0.4,2-1.3,3.9-2.4,5.7c-1.1,1.6-2.4,2.9-4,4c-1.6,1.1-3.3,1.9-5.2,2.4
			c-2,0.6-4,0.8-6,0.8c-2.7,0.1-5.5-0.4-8-1.5c-2-0.8-3.7-2.1-5.1-3.8c-1.2-1.5-2.1-3.2-2.6-5c-0.5-1.7-0.7-3.5-0.8-5.3
			c0-3.5,0.5-6.9,1.6-10.2c1-2.9,2.4-5.6,4.3-7.9c1.7-2.1,3.9-3.9,6.4-5.1c2.4-1.2,5-1.8,7.6-1.8c5.7,0,9.9,1.5,12.5,4.5
			c2.6,3,3.9,7.2,3.9,12.7c0,1-0.1,1.9-0.2,2.9c-0.2,0.9-0.3,1.6-0.4,2.2h-29.2C1104.2,201.7,1104.1,202.9,1104.2,204z M1127.5,191
			c-0.2-1.3-0.8-2.5-1.5-3.5c-0.7-1-1.7-1.9-2.9-2.5c-1.4-0.7-2.9-1-4.4-0.9c-1.7,0-3.4,0.3-5,0.9c-1.4,0.5-2.7,1.4-3.9,2.4
			c-1.1,1-2,2.2-2.8,3.5c-0.8,1.3-1.4,2.8-1.8,4.2h22.5C1127.9,193.7,1127.8,192.3,1127.5,191z"/>
			<path class="st0" d="M1151.3,179.3l-1.2,5.9h0.2c1.5-2.2,3.6-3.9,6.1-5.1c2.4-1.1,5.1-1.7,7.7-1.7c3.7,0,6.4,0.8,8.1,2.4
			c1.8,1.6,2.7,4.1,2.7,7.6c0,1.1-0.1,2.2-0.3,3.3c-0.2,1.4-0.5,2.8-0.8,4.3l-4.7,22.1h-6.4l5-22.6c0-0.4,0.1-0.9,0.2-1.4
			s0.2-1.1,0.3-1.6s0.2-1.1,0.3-1.6c0.1-0.4,0.1-0.9,0.1-1.3c0.1-1.6-0.7-3.2-2-4.1c-1.4-0.9-3.1-1.4-4.8-1.3
			c-1.8,0-3.6,0.5-5.2,1.3c-1.6,0.8-3.1,1.9-4.4,3.2c-1.2,1-2.1,2.2-2.7,3.6c-0.7,1.4-1.2,2.9-1.6,4.5l-4.5,21.4h-6.4l8.1-38.8
			L1151.3,179.3z"/>
			<path class="st0" d="M1203.3,179.3l-1.2,5.6h-7.7l-4.8,22.8c0,0.4-0.1,0.9-0.2,1.3c-0.1,0.4-0.1,0.8-0.1,1.3
			c-0.1,0.9,0.4,1.7,1.2,2.1c0.8,0.4,1.7,0.6,2.7,0.6c0.6,0,1.3-0.1,1.9-0.2c0.6-0.1,1.2-0.3,1.8-0.5l-1.1,5.9
			c-0.8,0.1-1.5,0.2-2.2,0.3c-0.7,0.1-1.5,0.1-2.2,0.1c-1.1,0-2.3-0.1-3.4-0.3c-1-0.2-1.9-0.5-2.7-1c-0.8-0.5-1.4-1.1-1.9-1.9
			c-0.5-0.9-0.8-2-0.7-3.1c0-0.5,0-1.1,0.1-1.6c0.1-0.5,0.2-1.1,0.3-1.6l5.1-24h-6.5l1.2-5.6h6.5l2.4-11.5h6.4l-2.4,11.5
			L1203.3,179.3z"/>
			<path class="st0" d="M1209.8,204c0,1.4,0.3,2.7,0.8,4c0.5,1.1,1.3,2.1,2.2,2.9c1,0.8,2.1,1.4,3.2,1.8c1.2,0.4,2.5,0.6,3.8,0.6
			c2.5,0.1,4.9-0.6,7-1.9c1.9-1.3,3.4-3.2,4.2-5.4h6.4c-0.4,2-1.3,3.9-2.4,5.7c-1.1,1.6-2.4,2.9-4,4c-1.6,1.1-3.3,1.9-5.2,2.4
			c-2,0.6-4,0.8-6,0.8c-2.7,0.1-5.5-0.4-8-1.5c-2-0.8-3.7-2.1-5.1-3.8c-1.2-1.5-2.1-3.2-2.6-5c-0.5-1.7-0.7-3.5-0.8-5.3
			c0-3.5,0.5-6.9,1.6-10.2c1-2.9,2.4-5.6,4.3-7.9c1.7-2.1,3.9-3.9,6.4-5.1c2.4-1.2,5-1.8,7.6-1.8c5.7,0,9.9,1.5,12.5,4.5
			s3.9,7.2,3.9,12.7c0,1-0.1,1.9-0.2,2.9c-0.2,0.9-0.3,1.6-0.4,2.2H1210C1209.8,201.8,1209.8,202.9,1209.8,204z M1233.1,191
			c-0.2-1.3-0.8-2.5-1.5-3.5c-0.7-1-1.7-1.9-2.9-2.5c-1.4-0.7-2.9-1-4.4-0.9c-1.7,0-3.4,0.3-5,0.9c-1.4,0.5-2.7,1.4-3.9,2.4
			c-1.1,1-2,2.2-2.8,3.5c-0.8,1.3-1.4,2.8-1.8,4.2h22.5C1233.5,193.7,1233.4,192.3,1233.1,191z"/>
			<path class="st0" d="M1256.6,179.3l-1.9,8.3h0.2c1.4-2.6,3.4-4.8,5.7-6.6c2.4-1.8,5.4-2.7,8.4-2.6c0.4,0,0.7,0,1.1-0.1
			c0.4,0,0.8,0,1.1,0.1l-1.5,6.8c-0.3-0.1-0.7-0.1-1-0.1h-0.9c-0.8,0-1.5,0-2,0c-0.6,0.1-1.3,0.2-1.9,0.3c-1.7,0.4-3.3,1.2-4.7,2.3
			c-1.4,1.1-2.6,2.5-3.6,4c-0.9,1.4-1.6,2.8-2,4.4c-0.5,1.7-0.9,3.2-1.2,4.7l-3.7,17.2h-6.3l8-38.8H1256.6z"/>
			<path class="st0" d="M1291.1,185l1.1-5.6h6.6c0.5-2,1-3.9,1.4-5.7c0.4-1.7,1-3.4,1.8-4.9c0.8-1.4,1.9-2.6,3.3-3.4
			c1.8-1,3.9-1.4,6-1.3c0.9,0,1.8,0,2.7,0.1c0.9,0.1,1.8,0.2,2.6,0.5l-1.1,5.4c-0.6-0.1-1.1-0.2-1.6-0.3c-0.5-0.1-1-0.1-1.4-0.1
			c-1.3-0.1-2.5,0.2-3.6,0.9c-0.9,0.6-1.5,1.3-2,2.2c-0.5,1-0.8,2-1,3.1c-0.2,1.1-0.5,2.3-0.9,3.5h7.4l-1,5.6h-7.6l-7.1,33.2h-6.4
			l7.2-33.1L1291.1,185z"/>
			<path class="st0" d="M1313.7,193.7c0.9-2.8,2.4-5.5,4.3-7.8c1.9-2.3,4.2-4.1,6.8-5.4c2.8-1.4,6-2.1,9.1-2c5.3,0,9.3,1.4,12,4.1
			c2.7,2.7,4.1,6.7,4.1,12c0,3.1-0.5,6.2-1.4,9.1c-0.9,2.9-2.3,5.5-4.2,7.8c-1.8,2.3-4.1,4.1-6.8,5.4c-2.8,1.4-5.9,2.1-9.1,2
			c-2.3,0-4.7-0.4-6.9-1.2c-3.9-1.5-6.9-4.5-8.4-8.4c-0.8-2.1-1.1-4.3-1.1-6.5C1312.2,199.7,1312.7,196.6,1313.7,193.7z
			 M1321.3,210.5c1.8,1.9,4.5,2.9,8,2.9c2.2,0,4.4-0.6,6.2-1.8c1.8-1.2,3.3-2.8,4.5-4.5c1.2-1.8,2.2-3.9,2.8-6c0.6-2,0.9-4,0.9-6.1
			c0-1.4-0.2-2.9-0.6-4.3c-0.7-2.6-2.6-4.7-5.1-5.8c-1.4-0.6-3-0.9-4.5-0.9c-2.3,0-4.5,0.6-6.4,1.8c-1.8,1.2-3.4,2.7-4.7,4.5
			c-1.3,1.8-2.2,3.9-2.8,6c-0.6,2-0.9,4.2-0.9,6.3C1318.5,205.5,1319.4,208.3,1321.3,210.5z"/>
			<path class="st0" d="M1367.7,179.3l-1.9,8.3h0.2c1.4-2.6,3.4-4.8,5.7-6.6c2.4-1.8,5.4-2.7,8.4-2.6c0.4,0,0.8,0,1.1-0.1
			c0.4,0,0.8,0,1.1,0.1l-1.5,6.8c-0.3-0.1-0.7-0.1-1-0.1h-0.9c-0.8,0-1.5,0-2,0c-0.6,0.1-1.3,0.2-1.9,0.3c-1.7,0.4-3.3,1.2-4.7,2.3
			c-1.4,1.1-2.6,2.5-3.6,4c-0.9,1.4-1.6,2.8-2,4.4c-0.5,1.7-0.9,3.2-1.2,4.7l-3.6,17.2h-6.3l8-38.8H1367.7z"/>
			<path class="st0" d="M1433,164.6c5.3,0,9.1,1.1,11.4,3.4s3.5,5.4,3.5,9.4c0,3-1,5.9-2.7,8.3c-0.9,1.2-2,2.2-3.2,3
			c-1.3,0.8-2.7,1.4-4.3,1.6v0.1c2.3,0.6,4.4,2,5.8,3.9c1.5,2.1,2.3,4.6,2.2,7.2c0,2.4-0.5,4.7-1.5,6.9c-0.9,2-2.3,3.8-4,5.2
			c-1.8,1.5-3.8,2.6-6,3.3c-2.4,0.8-4.9,1.2-7.4,1.2h-26.5l11.2-53.6L1433,164.6z M1425.7,212.1c1.2,0,2.4-0.1,3.5-0.3
			c1.5-0.2,2.9-0.7,4.3-1.4c1.4-0.8,2.7-1.9,3.6-3.2c1.1-1.7,1.7-3.7,1.5-5.8c0.1-1.4-0.2-2.9-0.9-4.1c-0.6-1-1.4-1.8-2.4-2.4
			c-1.1-0.6-2.3-1-3.5-1.1c-1.4-0.2-2.8-0.3-4.2-0.3h-15.3l-3.9,18.5H1425.7z M1429.4,187.6c7.6,0,11.4-3.4,11.4-10.2
			c0.1-1.3-0.3-2.6-1-3.8c-0.7-0.9-1.6-1.6-2.6-2c-1.1-0.5-2.2-0.8-3.4-0.9c-1.2-0.1-2.3-0.2-3.5-0.2h-13.2l-3.6,17H1429.4z"/>
			<path class="st0" d="M1465.3,179.3l-8.1,38.8h-6.3l8-38.8H1465.3z M1460.3,172.3l1.7-7.8h6.4l-1.7,7.8H1460.3z"/>
			<path class="st0" d="M1470.6,193.7c0.9-2.8,2.4-5.5,4.3-7.8c1.9-2.3,4.2-4.1,6.8-5.4c2.8-1.4,6-2.1,9.1-2c5.3,0,9.3,1.4,12,4.1
			c2.7,2.7,4.1,6.7,4.1,12c0,3.1-0.5,6.2-1.4,9.1c-0.9,2.9-2.3,5.5-4.2,7.8c-1.8,2.3-4.1,4.1-6.8,5.4c-2.8,1.4-5.9,2.1-9.1,2
			c-2.3,0-4.7-0.4-6.9-1.2c-3.9-1.5-6.9-4.5-8.4-8.4c-0.8-2.1-1.2-4.3-1.1-6.5C1469.1,199.7,1469.6,196.6,1470.6,193.7z
			 M1478.2,210.5c1.8,1.9,4.5,2.9,8,2.9c2.2,0,4.4-0.6,6.2-1.8c1.8-1.2,3.3-2.8,4.5-4.5c1.2-1.8,2.2-3.9,2.8-6c0.6-2,0.9-4,0.9-6.1
			c0-1.4-0.2-2.9-0.6-4.3c-0.7-2.6-2.6-4.7-5.1-5.8c-1.4-0.6-3-0.9-4.5-0.9c-2.3,0-4.5,0.6-6.4,1.8c-1.8,1.2-3.4,2.7-4.7,4.5
			c-1.3,1.8-2.2,3.9-2.8,6c-0.6,2-0.9,4.2-0.9,6.3C1475.4,205.5,1476.3,208.3,1478.2,210.5L1478.2,210.5z"/>
			<path class="st0" d="M1524.7,179.3l-1.4,5.8l0.2,0.1c1.6-2.1,3.7-3.8,6-5c2.3-1.2,4.9-1.8,7.5-1.8c2.2-0.1,4.4,0.5,6.3,1.6
			c1.9,1.2,3.1,3.2,3.4,5.4c1.5-2.1,3.5-3.9,5.8-5.1c2.3-1.3,4.9-1.9,7.5-1.9c1.3,0,2.7,0.2,4,0.5c1.2,0.3,2.4,0.8,3.5,1.5
			c1,0.7,1.9,1.6,2.4,2.7c0.6,1.2,0.9,2.6,0.9,4c0,1.3-0.1,2.6-0.4,3.9c-0.2,1.4-0.5,2.7-0.8,3.8l-4.9,23.2h-6.4l5.4-24.6
			c0.2-0.6,0.3-1.3,0.4-2.1c0.1-0.7,0.2-1.4,0.2-2.1c0-1.4-0.6-2.8-1.7-3.8c-1.2-1-2.7-1.6-4.2-1.5c-0.9,0-1.9,0.2-2.7,0.4
			c-0.9,0.3-1.8,0.7-2.7,1.2c-1.7,0.9-3.2,2.2-4.3,3.7c-1.1,1.2-1.8,2.5-2.3,4c-0.5,1.6-0.9,3.1-1.3,4.7l-4.3,20h-6.4l4.7-22.1
			c0.3-1.5,0.6-2.9,0.9-4.2c0.2-0.9,0.3-1.7,0.3-2.6c0.1-1.4-0.4-2.7-1.4-3.8c-1.1-1-2.5-1.4-4-1.4c-1.8,0-3.6,0.5-5.2,1.5
			c-1.6,0.9-3.1,2.1-4.3,3.4c-1.2,1.1-2.2,2.4-2.8,3.9c-0.6,1.6-1,3.2-1.3,4.8l-4.3,20.3h-6.3l8.2-38.8L1524.7,179.3z"/>
			<path class="st0" d="M1581.9,204c0,1.4,0.3,2.7,0.8,4c0.5,1.2,1.3,2.2,2.3,3c1,0.8,2.1,1.4,3.2,1.8c1.2,0.4,2.5,0.6,3.8,0.6
			c2.5,0.1,4.9-0.6,7-1.9c1.9-1.4,3.4-3.3,4.1-5.5h6.4c-0.4,2-1.3,3.9-2.4,5.7c-1.1,1.6-2.4,2.9-4,4c-1.6,1.1-3.3,1.9-5.2,2.4
			c-2,0.6-4,0.8-6,0.8c-2.7,0.1-5.5-0.4-8-1.5c-2-0.8-3.7-2.1-5.1-3.8c-1.2-1.5-2.1-3.2-2.6-5c-0.5-1.7-0.7-3.5-0.8-5.3
			c0-3.5,0.5-6.9,1.6-10.2c1-2.9,2.4-5.6,4.3-7.9c1.7-2.1,3.9-3.9,6.4-5.1c2.4-1.2,5-1.8,7.6-1.8c5.7,0,9.9,1.5,12.5,4.5
			c2.6,3,3.9,7.2,3.9,12.7c0,1-0.1,1.9-0.2,2.9c-0.2,0.9-0.3,1.6-0.4,2.2H1582C1581.9,201.8,1581.9,202.9,1581.9,204z M1605.3,191
			c-0.3-1.3-0.8-2.5-1.5-3.5c-0.8-1-1.7-1.9-2.9-2.5c-1.4-0.7-2.9-1-4.4-0.9c-1.7,0-3.4,0.3-5,0.9c-1.4,0.5-2.7,1.3-3.9,2.4
			c-1.1,1-2,2.2-2.8,3.5c-0.8,1.3-1.4,2.8-1.8,4.2h22.5C1605.6,193.7,1605.5,192.3,1605.3,191z"/>
			<path class="st0" d="M1643.2,218.1l1.3-5.6h-0.2c-1.5,2.2-3.5,3.9-5.9,5.1c-2.2,0.9-4.6,1.4-6.9,1.3c-2.2,0-4.4-0.4-6.5-1.2
			c-1.8-0.7-3.5-1.8-4.8-3.2c-1.3-1.4-2.3-3.1-2.9-5c-0.7-2.1-1-4.3-1-6.4c0-3,0.5-6,1.5-8.8c0.9-2.9,2.4-5.5,4.2-7.9
			c1.8-2.4,4.1-4.3,6.8-5.7c2.8-1.5,5.9-2.3,9.1-2.2c1.2,0,2.5,0.1,3.7,0.3c1.2,0.2,2.4,0.6,3.6,1.1c1.1,0.5,2.1,1.2,3,2.1
			c0.9,0.9,1.5,2,1.9,3.3h0.2l4.1-20.7h6.3l-11.3,53.6L1643.2,218.1z M1625.1,210.6c1.6,1.8,4.1,2.8,7.6,2.8c2.3,0,4.5-0.6,6.4-1.9
			c1.9-1.2,3.5-2.8,4.8-4.7c1.3-1.9,2.3-4,2.9-6.3c0.6-2.1,1-4.2,1-6.4c0.1-2.6-0.8-5.2-2.5-7.2c-1.7-1.9-4.1-2.9-7.2-2.9
			c-2.3-0.1-4.7,0.6-6.7,1.8c-1.9,1.2-3.5,2.7-4.8,4.5c-1.3,1.9-2.3,4-2.9,6.1c-0.6,2.1-1,4.4-1,6.6
			C1622.5,205.8,1623.4,208.5,1625.1,210.6z"/>
			<path class="st0" d="M1673.6,179.3l-8.1,38.8h-6.3l8-38.8H1673.6z M1668.6,172.3l1.7-7.8h6.4l-1.7,7.8H1668.6z"/>
			<path class="st0" d="M1705.2,186.1c-1.7-1.4-3.8-2.1-6-2c-2.3,0-4.5,0.5-6.5,1.6c-1.9,1.1-3.5,2.6-4.7,4.3
			c-1.3,1.8-2.3,3.8-2.9,5.9c-0.6,2.1-1,4.2-1,6.4c0,1.4,0.2,2.9,0.5,4.3c0.3,1.3,0.8,2.5,1.6,3.5c0.8,1,1.8,1.9,3,2.4
			c1.4,0.6,3,0.9,4.5,0.9c2.5,0.1,5-0.7,7-2.2c2-1.5,3.5-3.5,4.3-5.8h6.4c-0.9,4-3.1,7.5-6.3,10.1c-3.3,2.4-7.3,3.6-11.4,3.4
			c-5.3,0-9.3-1.4-12-4.4c-2.7-2.9-4-7-4-12.3c0-3,0.5-6,1.4-8.9c0.9-2.8,2.3-5.4,4.1-7.6c3.9-4.8,9.8-7.5,15.9-7.3
			c4.4,0,7.9,1.1,10.5,3.2s3.9,5.5,4.1,10h-6.4C1707.4,189.6,1706.7,187.5,1705.2,186.1z"/>
			<path class="st0" d="M1722.4,185.4c1-1.5,2.3-2.9,3.8-3.9c1.5-1.1,3.3-1.9,5.1-2.3c1.9-0.5,3.9-0.8,5.9-0.8c1.8,0,3.6,0.1,5.4,0.4
			c1.6,0.3,3.1,0.8,4.5,1.6c1.3,0.7,2.4,1.8,3.1,3c0.8,1.5,1.2,3.2,1.2,4.8c0,1.2-0.2,2.4-0.4,3.6c-0.3,1.3-0.5,2.4-0.8,3.5
			l-2.5,10.7c-0.2,0.8-0.4,1.7-0.6,2.7c-0.3,0.9-0.4,1.9-0.4,2.9c-0.1,0.7,0.1,1.3,0.5,1.9c0.4,0.4,0.8,0.5,1.3,0.5
			c0.3,0,0.7-0.1,1-0.2l1-0.3l-1,4.7c-0.6,0.2-1.3,0.4-1.9,0.6c-0.7,0.2-1.3,0.3-2,0.3c-1.5,0.1-2.9-0.4-4-1.4c-0.9-1.1-1.3-2.6-1-4
			l-0.2-0.1c-1.3,1.8-3,3.2-5,4.1c-2.5,1.1-5.3,1.5-8,1.4c-1.6,0-3.1-0.2-4.6-0.6c-2.8-0.7-5.1-2.6-6.2-5.2c-0.7-1.6-1-3.3-0.9-5.1
			c-0.1-2.4,0.5-4.7,1.8-6.7c1.2-1.6,2.8-2.9,4.7-3.6c2-0.9,4.1-1.4,6.3-1.7c2.3-0.3,4.5-0.5,6.7-0.8c1.7-0.1,3.2-0.3,4.4-0.5
			c1-0.1,2.1-0.4,3-0.9c0.8-0.4,1.4-1,1.8-1.7c0.4-1,0.6-2,0.6-3.1c0-0.9-0.2-1.8-0.8-2.6c-0.5-0.6-1.1-1.2-1.9-1.5
			c-0.8-0.4-1.6-0.6-2.5-0.8c-0.9-0.1-1.8-0.2-2.7-0.2c-1.2,0-2.4,0.1-3.6,0.4c-1.1,0.2-2.2,0.6-3.2,1.2c-0.9,0.6-1.8,1.3-2.4,2.2
			c-0.7,0.9-1.1,2-1.3,3.2h-6.4C1720.6,189.1,1721.3,187.1,1722.4,185.4z M1724.2,212c1.4,0.9,3.1,1.4,4.8,1.4
			c5.1,0,8.7-1.7,10.9-5.1c1-1.4,1.8-3,2.1-4.7c0.4-1.7,0.8-3.5,1.2-5.2h-0.2c-1,0.7-2.2,1.2-3.4,1.4c-1.4,0.3-2.8,0.5-4.4,0.6
			s-3.1,0.3-4.7,0.6c-1.5,0.2-2.9,0.6-4.2,1.1c-1.2,0.5-2.2,1.2-3.1,2.1c-0.9,1.1-1.3,2.5-1.3,3.9
			C1722,209.6,1722.8,211.1,1724.2,212L1724.2,212z"/>
			<path class="st0" d="M1772.6,164.6l-11.2,53.6h-6.3l11.2-53.6H1772.6z"/>
			<path class="st0" d="M1834.5,214.2c-3.9,3.4-9.2,5.1-15.8,5.1c-7.3,0-13-2-17-6.1s-6-9.8-6-17.3c0-4.2,0.6-8.4,2-12.4
			c1.3-3.8,3.2-7.3,5.8-10.4c5.3-6.4,13.3-10,21.6-9.8c2.7,0,5.4,0.4,8.1,1.2c2.4,0.7,4.6,1.9,6.4,3.4c1.9,1.6,3.3,3.5,4.3,5.8
			c1.1,2.6,1.6,5.3,1.6,8.1h-7.1c0-4.2-1.2-7.3-3.7-9.4c-2.7-2.2-6.1-3.3-9.6-3.1c-3.4-0.1-6.8,0.7-9.8,2.4
			c-2.7,1.5-5.1,3.6-6.9,6.1c-1.9,2.6-3.3,5.4-4.2,8.5c-0.9,3.1-1.4,6.4-1.4,9.6c0,2.4,0.3,4.8,1,7.1c0.6,2,1.6,3.9,2.9,5.5
			c1.3,1.6,3,2.8,4.9,3.6c2.2,0.9,4.6,1.3,7,1.3c4.4,0,8-1.2,10.7-3.5c2.9-2.6,5-6,5.8-9.9h7.1C1841,206,1838.4,210.7,1834.5,214.2z
			"/>
			<path class="st0" d="M1849.8,193.7c0.9-2.8,2.4-5.5,4.3-7.8c1.9-2.3,4.2-4.1,6.8-5.4c2.8-1.4,6-2.1,9.1-2c5.3,0,9.3,1.4,12,4.1
			s4.1,6.7,4.1,12c0,3.1-0.5,6.2-1.4,9.1c-0.9,2.9-2.3,5.5-4.2,7.8c-1.8,2.3-4.1,4.1-6.8,5.4c-2.8,1.4-5.9,2.1-9.1,2
			c-2.3,0-4.7-0.4-6.9-1.2c-3.9-1.5-6.9-4.5-8.4-8.4c-0.8-2.1-1.1-4.3-1.1-6.5C1848.3,199.7,1848.8,196.6,1849.8,193.7z
			 M1857.4,210.5c1.8,1.9,4.5,2.9,8,2.9c2.2,0,4.4-0.6,6.2-1.8c1.8-1.2,3.3-2.8,4.5-4.5c1.2-1.8,2.2-3.9,2.8-6c0.6-2,0.9-4,0.9-6.1
			c0-1.4-0.2-2.9-0.6-4.3c-0.7-2.6-2.6-4.7-5.1-5.8c-1.4-0.6-3-0.9-4.5-0.9c-2.3,0-4.5,0.6-6.4,1.8c-1.8,1.2-3.4,2.7-4.7,4.5
			c-1.3,1.8-2.2,3.9-2.8,6c-0.6,2-0.9,4.2-0.9,6.3C1854.6,205.5,1855.5,208.3,1857.4,210.5z"/>
			<path class="st0" d="M1903.9,179.3l-1.4,5.8l0.2,0.1c1.6-2.1,3.7-3.8,6-5c2.3-1.2,4.9-1.8,7.5-1.8c2.2-0.1,4.4,0.5,6.3,1.6
			c1.9,1.2,3.1,3.2,3.4,5.4c1.5-2.1,3.5-3.9,5.8-5.1c2.3-1.3,4.9-1.9,7.5-1.9c1.3,0,2.7,0.2,4,0.5c1.2,0.3,2.4,0.8,3.5,1.5
			c1,0.7,1.9,1.6,2.4,2.7c0.6,1.2,0.9,2.6,0.9,4c0,1.3-0.1,2.6-0.4,3.9c-0.2,1.4-0.5,2.7-0.8,3.8L1944,218h-6.4l5.4-24.6
			c0.2-0.6,0.3-1.3,0.4-2.1c0.1-0.7,0.2-1.4,0.2-2.1c0-1.4-0.6-2.8-1.7-3.8c-1.2-1-2.7-1.6-4.2-1.5c-0.9,0-1.9,0.2-2.7,0.4
			c-0.9,0.3-1.8,0.7-2.7,1.2c-1.7,0.9-3.2,2.2-4.3,3.7c-1.1,1.2-1.8,2.5-2.3,4c-0.5,1.6-0.9,3.1-1.3,4.7l-4.3,20h-6.4l4.7-22.1
			c0.3-1.5,0.6-2.9,0.9-4.2c0.2-0.9,0.3-1.7,0.3-2.6c0.1-1.4-0.4-2.7-1.4-3.8c-1.1-1-2.5-1.4-4-1.4c-1.8,0-3.6,0.5-5.2,1.5
			c-1.6,0.9-3.1,2.1-4.3,3.4c-1.2,1.1-2.2,2.4-2.8,3.9c-0.6,1.6-1,3.2-1.3,4.8l-4.3,20.3h-6.3l8.2-38.8L1903.9,179.3z"/>
			<path class="st0" d="M1967.8,179.3l-1.4,5.8l0.2,0.1c1.6-2.1,3.7-3.8,6-5c2.3-1.2,4.9-1.8,7.5-1.8c2.2-0.1,4.4,0.5,6.3,1.6
			c1.9,1.2,3.1,3.2,3.4,5.4c1.5-2.1,3.5-3.9,5.8-5.1c2.3-1.3,4.9-1.9,7.5-1.9c1.3,0,2.7,0.2,4,0.5c1.2,0.3,2.4,0.8,3.5,1.5
			c1,0.7,1.9,1.6,2.4,2.7c0.6,1.2,0.9,2.6,0.9,4c0,1.3-0.1,2.6-0.4,3.9c-0.2,1.4-0.5,2.7-0.8,3.8l-4.9,23.2h-6.4l5.4-24.6
			c0.2-0.6,0.3-1.3,0.4-2.1c0.1-0.7,0.2-1.4,0.2-2.1c0-1.4-0.6-2.8-1.7-3.8c-1.2-1-2.7-1.6-4.2-1.5c-0.9,0-1.9,0.2-2.7,0.4
			c-0.9,0.3-1.8,0.7-2.7,1.2c-1.7,0.9-3.2,2.2-4.3,3.7c-1.1,1.2-1.8,2.5-2.3,4c-0.5,1.6-0.9,3.1-1.3,4.7l-4.3,20h-6.4l4.7-22.1
			c0.3-1.5,0.6-2.9,0.9-4.2c0.2-0.9,0.3-1.7,0.3-2.6c0.1-1.4-0.4-2.7-1.4-3.8c-1.1-1-2.5-1.4-4-1.4c-1.8,0-3.6,0.5-5.2,1.5
			c-1.6,0.9-3.1,2.1-4.3,3.4c-1.2,1.1-2.2,2.4-2.8,3.9c-0.6,1.6-1,3.2-1.3,4.8l-4.4,20.4h-6.3l8.2-38.8H1967.8z"/>
			<path class="st0" d="M2042.5,218.1l1.2-5.9h-0.2c-1.5,2.2-3.6,3.9-6.1,5c-2.4,1.1-5.1,1.7-7.7,1.6c-3.6,0-6.4-0.8-8.1-2.4
			c-1.8-1.6-2.7-4.1-2.7-7.5c0-1.1,0.1-2.2,0.3-3.3c0.2-1.4,0.5-2.8,0.8-4.3l4.7-22.1h6.4l-5,22.6c-0.1,0.3-0.2,0.8-0.3,1.4
			c-0.1,0.6-0.2,1.1-0.3,1.7c-0.1,0.6-0.2,1.1-0.2,1.6s-0.1,1-0.1,1.3c-0.1,1.6,0.7,3.2,2,4.1c1.4,0.9,3.1,1.4,4.8,1.3
			c1.7,0,3.4-0.3,5-1c1.5-0.7,2.9-1.6,4.1-2.8c1.2-1.2,2.2-2.6,3-4.1c0.8-1.5,1.4-3,1.8-4.7l4.5-21.4h6.4l-8.2,38.8L2042.5,218.1z" />
			<path class="st0" d="M2073.5,179.3l-1.2,5.9h0.1c1.5-2.2,3.6-3.9,6.1-5.1c2.4-1.1,5.1-1.7,7.7-1.7c3.6,0,6.4,0.8,8.1,2.4
			c1.8,1.6,2.7,4.1,2.7,7.6c0,1.1-0.1,2.2-0.3,3.3c-0.2,1.4-0.5,2.8-0.8,4.3l-4.7,22.1h-6.4l4.9-22.6c0.1-0.4,0.1-0.9,0.2-1.4
			s0.2-1.1,0.3-1.6s0.2-1.1,0.3-1.6c0.1-0.4,0.1-0.9,0.1-1.3c0.1-1.6-0.7-3.2-2-4.1c-1.4-0.9-3.1-1.4-4.8-1.3
			c-1.8,0-3.6,0.5-5.2,1.3c-1.6,0.8-3.1,1.9-4.4,3.2c-1.2,1-2.1,2.2-2.7,3.6c-0.7,1.4-1.2,2.9-1.6,4.5l-4.5,21.4h-6.3l8.1-38.8
			L2073.5,179.3z"/>
			<path class="st0" d="M2115.4,179.3l-8.1,38.8h-6.3l8-38.8H2115.4z M2110.4,172.3l1.6-7.8h6.4l-1.6,7.8H2110.4z"/>
			<path class="st0" d="M2146.9,186.1c-1.7-1.4-3.8-2.1-6-2c-2.3,0-4.5,0.5-6.5,1.6c-1.9,1.1-3.5,2.5-4.7,4.3
			c-1.3,1.8-2.3,3.8-2.9,5.9c-0.6,2.1-1,4.2-1,6.4c0,1.4,0.2,2.9,0.5,4.3c0.3,1.3,0.8,2.5,1.6,3.5c0.8,1,1.8,1.9,3,2.4
			c1.4,0.6,3,0.9,4.5,0.9c2.5,0.1,5-0.7,7.1-2.2c2-1.5,3.4-3.5,4.3-5.8h6.4c-0.9,4-3.1,7.5-6.3,10.1c-3.3,2.4-7.3,3.6-11.4,3.4
			c-5.3,0-9.3-1.5-12-4.4c-2.7-2.9-4-7-4-12.3c0-3,0.5-6,1.4-8.9c0.9-2.8,2.3-5.4,4.1-7.6c3.9-4.8,9.8-7.5,15.9-7.3
			c4.4,0,7.9,1.1,10.5,3.2s3.9,5.5,4.1,10h-6.4C2149.2,189.5,2148.4,187.5,2146.9,186.1z"/>
			<path class="st0" d="M2164.1,185.4c1-1.5,2.3-2.9,3.8-3.9c1.5-1.1,3.3-1.9,5.1-2.3c1.9-0.5,3.9-0.8,5.9-0.8c1.8,0,3.6,0.1,5.4,0.4
			c1.6,0.3,3.1,0.8,4.5,1.6c1.3,0.7,2.3,1.8,3.1,3c0.8,1.5,1.2,3.2,1.2,4.8c0,1.2-0.2,2.4-0.4,3.6c-0.3,1.3-0.5,2.4-0.8,3.5
			l-2.5,10.7c-0.1,0.8-0.4,1.7-0.6,2.7c-0.3,0.9-0.4,1.9-0.4,2.9c-0.1,0.7,0.1,1.3,0.5,1.9c0.4,0.4,0.8,0.5,1.4,0.5
			c0.3,0,0.7-0.1,1-0.2l1-0.3l-1,4.7c-0.6,0.2-1.3,0.4-1.9,0.6c-0.7,0.2-1.3,0.3-2,0.3c-1.5,0.1-2.9-0.4-4-1.4c-0.9-1.1-1.3-2.6-1-4
			l-0.1-0.1c-1.3,1.8-3,3.2-5,4.1c-2.5,1.1-5.2,1.5-7.9,1.4c-1.6,0-3.1-0.2-4.6-0.6c-2.8-0.7-5.1-2.6-6.2-5.2
			c-0.7-1.6-1-3.3-0.9-5.1c-0.1-2.4,0.5-4.7,1.8-6.7c1.2-1.6,2.8-2.9,4.7-3.6c2-0.9,4.1-1.4,6.3-1.7c2.3-0.3,4.5-0.5,6.7-0.8
			c1.7-0.1,3.2-0.3,4.4-0.5c1-0.1,2.1-0.4,3-0.9c0.8-0.4,1.4-1,1.8-1.7c0.4-1,0.6-2,0.6-3.1c0-0.9-0.2-1.8-0.8-2.6
			c-0.5-0.6-1.1-1.2-1.9-1.5c-0.8-0.4-1.6-0.6-2.5-0.8c-0.9-0.1-1.8-0.2-2.7-0.2c-1.2,0-2.4,0.1-3.6,0.4c-1.1,0.2-2.2,0.6-3.2,1.2
			c-0.9,0.6-1.8,1.3-2.4,2.2c-0.7,0.9-1.1,2-1.3,3.2h-6.4C2162.4,189.1,2163.1,187.1,2164.1,185.4z M2166,212
			c1.4,0.9,3.1,1.4,4.8,1.4c5.1,0,8.7-1.7,10.9-5.1c1-1.4,1.8-3,2.1-4.7c0.4-1.7,0.8-3.4,1.2-5.2h-0.1c-1,0.7-2.2,1.2-3.4,1.4
			c-1.4,0.3-2.8,0.5-4.4,0.6s-3.1,0.3-4.7,0.6c-1.4,0.2-2.9,0.6-4.2,1.1c-1.2,0.5-2.2,1.2-3.1,2.1c-0.9,1.1-1.3,2.5-1.3,3.9
			C2163.8,209.6,2164.6,211.1,2166,212z"/>
			<path class="st0" d="M2221.4,179.3l-1.2,5.6h-7.7l-4.8,22.8c-0.1,0.4-0.1,0.9-0.1,1.3c0,0.4-0.1,0.8-0.1,1.3
			c-0.1,0.9,0.4,1.7,1.2,2.1c0.8,0.4,1.7,0.6,2.7,0.6c0.6,0,1.3-0.1,1.9-0.2c0.6-0.1,1.2-0.3,1.8-0.5l-1.1,5.9
			c-0.8,0.1-1.5,0.2-2.2,0.3c-0.7,0.1-1.5,0.1-2.2,0.1c-1.1,0-2.3-0.1-3.4-0.3c-1-0.2-1.9-0.5-2.7-1c-0.8-0.5-1.4-1.1-1.9-1.9
			c-0.5-0.9-0.8-2-0.7-3.1c0-0.5,0-1,0.1-1.6c0.1-0.5,0.2-1.1,0.3-1.6l5.1-24.1h-6.5l1.2-5.6h6.5l2.4-11.5h6.4l-2.4,11.5
			L2221.4,179.3z"/>
			<path class="st0" d="M2234.8,179.3l-8.1,38.8h-6.3l8-38.8H2234.8z M2229.8,172.3l1.6-7.8h6.5l-1.6,7.8H2229.8z"/>
			<path class="st0" d="M2240.1,193.7c0.9-2.8,2.4-5.5,4.3-7.8c1.9-2.3,4.2-4.1,6.8-5.4c2.8-1.4,6-2.1,9.1-2c5.3,0,9.3,1.4,12,4.1
			c2.7,2.7,4.1,6.7,4.1,12c0,3.1-0.5,6.2-1.4,9.1c-0.9,2.9-2.3,5.5-4.2,7.8c-1.8,2.3-4.1,4.1-6.8,5.4c-2.8,1.4-5.9,2.1-9.1,2
			c-2.3,0-4.7-0.4-6.9-1.2c-3.9-1.5-6.9-4.5-8.4-8.4c-0.8-2.1-1.2-4.3-1.1-6.5C2238.7,199.7,2239.1,196.6,2240.1,193.7z
			 M2247.7,210.5c1.8,1.9,4.5,2.9,8,2.9c2.2,0,4.4-0.6,6.2-1.8c1.8-1.2,3.3-2.8,4.5-4.5c1.2-1.8,2.2-3.9,2.8-6c0.6-2,0.9-4,0.9-6.1
			c0-1.4-0.2-2.9-0.6-4.3c-0.7-2.6-2.6-4.7-5.1-5.8c-1.4-0.6-3-0.9-4.5-0.9c-2.3,0-4.5,0.6-6.4,1.8c-1.8,1.2-3.4,2.7-4.6,4.5
			c-1.3,1.8-2.2,3.9-2.8,6c-0.6,2-0.9,4.2-0.9,6.3C2244.9,205.5,2245.9,208.3,2247.7,210.5z"/>
			<path class="st0" d="M2294.4,179.3l-1.2,5.9h0.1c1.5-2.2,3.6-3.9,6.1-5.1c2.4-1.1,5.1-1.7,7.7-1.7c3.6,0,6.4,0.8,8.1,2.4
			c1.8,1.6,2.7,4.1,2.7,7.6c0,1.1-0.1,2.2-0.3,3.3c-0.2,1.4-0.5,2.8-0.8,4.3l-4.7,22.1h-6.4l4.9-22.6c0.1-0.4,0.1-0.9,0.2-1.4
			s0.2-1.1,0.3-1.6s0.2-1.1,0.3-1.6c0.1-0.4,0.1-0.9,0.1-1.3c0.1-1.6-0.6-3.2-1.9-4.1c-1.4-0.9-3.1-1.4-4.8-1.3
			c-1.8,0-3.6,0.5-5.2,1.3c-1.7,0.8-3.1,1.9-4.4,3.2c-1.2,1-2.1,2.2-2.7,3.6c-0.7,1.4-1.2,2.9-1.6,4.5l-4.5,21.4h-6.3l8.1-38.8
			L2294.4,179.3z"/>
			<path class="st0" d="M2346.5,185.8c-1.7-1.2-3.7-1.7-5.8-1.7c-1,0-2,0.1-2.9,0.2c-0.9,0.1-1.8,0.4-2.7,0.8
			c-0.7,0.4-1.4,0.9-1.9,1.5c-0.5,0.7-0.8,1.6-0.8,2.4c0,0.9,0.3,1.7,0.9,2.3c0.7,0.7,1.5,1.3,2.3,1.8c1.1,0.6,2.2,1.1,3.3,1.5
			l3.7,1.5c1.3,0.6,2.6,1.1,3.8,1.8c1.2,0.6,2.3,1.4,3.3,2.2c0.9,0.8,1.7,1.8,2.3,2.9c0.6,1.2,0.9,2.6,0.9,3.9
			c0.1,1.9-0.4,3.8-1.4,5.5c-0.9,1.5-2.2,2.8-3.7,3.7c-1.6,1-3.3,1.7-5.1,2.1c-1.9,0.4-3.8,0.6-5.7,0.6c-2.1,0-4.2-0.2-6.2-0.6
			c-1.8-0.4-3.4-1.1-4.9-2.1c-1.4-1-2.5-2.4-3.3-4c-0.9-2-1.3-4.1-1.2-6.3h6.3c-0.1,1.2,0.1,2.5,0.6,3.6c0.5,1,1.3,1.8,2.2,2.3
			c1,0.6,2.1,1,3.2,1.2c1.3,0.3,2.6,0.4,3.9,0.4c1.1,0,2.1-0.1,3.1-0.3c1-0.2,2-0.5,2.9-1c0.8-0.4,1.5-1.1,2.1-1.8
			c0.5-0.8,0.8-1.8,0.8-2.8c0-0.9-0.3-1.8-0.9-2.4c-0.7-0.7-1.5-1.3-2.3-1.8c-1-0.6-2.1-1.1-3.3-1.5c-1.2-0.5-2.5-1-3.7-1.5
			s-2.6-1.1-3.8-1.6c-1.2-0.6-2.3-1.3-3.3-2.1c-1-0.8-1.7-1.8-2.3-2.9c-0.6-1.2-0.9-2.5-0.9-3.8c0-1.7,0.4-3.3,1.2-4.8
			c0.8-1.4,1.9-2.6,3.3-3.5c1.4-1,3-1.7,4.6-2.1c1.7-0.5,3.5-0.8,5.3-0.8c1.8,0,3.6,0.2,5.3,0.6c1.7,0.4,3.3,1.1,4.7,2.1
			c1.4,1,2.5,2.3,3.3,3.8c0.9,1.8,1.3,3.7,1.3,5.7h-6.4C2349,188.8,2348.1,186.9,2346.5,185.8z"/>
		</g>
	</g>
	<a xlink:href="https://www.nlm.nih.gov" target="_blank">
		<rect id="NLMlink" x="405.3" class="clickbox" width="1653.9" height="145.8"/>
	</a>
	<a xlink:href="../../index.html" target="_top">
		<rect id="LHC-link" x="405.3" y="145.8" class="clickbox" width="1946.3" height="97"/>
	</a>
	<a xlink:href="https://www.nih.gov" target="_blank">
		<rect id="NIH-link" x="0" class="clickbox" width="382.7" height="243.3"/>
	</a>
</svg>
